{
	"asset":{
		"generator":"Khronos glTF Blender I/O v4.4.55",
		"version":"2.0"
	},
	"extensionsUsed":[
		"KHR_materials_specular",
		"KHR_materials_ior"
	],
	"scene":0,
	"scenes":[
		{
			"name":"Scene",
			"nodes":[
				0,
				1,
				2,
				3,
				4
			]
		}
	],
	"nodes":[
		{
			"mesh":0,
			"name":"LED Curve"
		},
		{
			"mesh":1,
			"name":"LED Ceiling"
		},
		{
			"mesh":2,
			"name":"LED Totem L"
		},
		{
			"mesh":3,
			"name":"LED Totem R"
		},
		{
			"mesh":4,
			"name":"Floor"
		}
	],
	"materials":[
		{
			"doubleSided":true,
			"emissiveFactor":[
				1,
				1,
				1
			],
			"emissiveTexture":{
				"index":0
			},
			"name":"M_WhiteScreen",
			"pbrMetallicRoughness":{
				"baseColorTexture":{
					"index":1
				},
				"metallicFactor":0,
				"roughnessFactor":0.5
			}
		},
		{
			"doubleSided":true,
			"name":"black.001",
			"pbrMetallicRoughness":{
				"baseColorFactor":[
					0,
					0,
					0,
					1
				],
				"metallicFactor":0,
				"roughnessFactor":0.5
			}
		},
		{
			"doubleSided":true,
			"extensions":{
				"KHR_materials_specular":{
					"specularColorFactor":[
						2.0,
						2.0,
						2.0
					]
				},
				"KHR_materials_ior":{
					"ior":1.4500000476837158
				}
			},
			"name":"Plastic_black.001",
			"pbrMetallicRoughness":{
				"baseColorFactor":[
					0.0038437643088400364,
					0.0038437643088400364,
					0.0038437643088400364,
					1
				],
				"metallicFactor":0,
				"roughnessFactor":0.8999999761581421
			}
		}
	],
	"meshes":[
		{
			"name":"Plane.003",
			"primitives":[
				{
					"attributes":{
						"POSITION":0,
						"NORMAL":1,
						"TEXCOORD_0":2,
						"TEXCOORD_1":3
					},
					"indices":4,
					"material":0
				},
				{
					"attributes":{
						"POSITION":5,
						"NORMAL":6,
						"TEXCOORD_0":7,
						"TEXCOORD_1":8
					},
					"indices":9,
					"material":1
				}
			]
		},
		{
			"name":"Plane.020",
			"primitives":[
				{
					"attributes":{
						"POSITION":10,
						"NORMAL":11,
						"TEXCOORD_0":12,
						"TEXCOORD_1":13
					},
					"indices":14,
					"material":0
				},
				{
					"attributes":{
						"POSITION":15,
						"NORMAL":16,
						"TEXCOORD_0":17,
						"TEXCOORD_1":18
					},
					"indices":19,
					"material":1
				}
			]
		},
		{
			"name":"Plane.021",
			"primitives":[
				{
					"attributes":{
						"POSITION":20,
						"NORMAL":21,
						"TEXCOORD_0":22,
						"TEXCOORD_1":23,
						"TEXCOORD_2":24
					},
					"indices":25,
					"material":0
				},
				{
					"attributes":{
						"POSITION":26,
						"NORMAL":27,
						"TEXCOORD_0":28,
						"TEXCOORD_1":29,
						"TEXCOORD_2":30
					},
					"indices":31,
					"material":1
				}
			]
		},
		{
			"name":"Plane.022",
			"primitives":[
				{
					"attributes":{
						"POSITION":32,
						"NORMAL":33,
						"TEXCOORD_0":34,
						"TEXCOORD_1":35,
						"TEXCOORD_2":36
					},
					"indices":25,
					"material":0
				},
				{
					"attributes":{
						"POSITION":37,
						"NORMAL":38,
						"TEXCOORD_0":39,
						"TEXCOORD_1":40,
						"TEXCOORD_2":41
					},
					"indices":31,
					"material":1
				}
			]
		},
		{
			"name":"Plane",
			"primitives":[
				{
					"attributes":{
						"POSITION":42,
						"NORMAL":43,
						"TEXCOORD_0":44
					},
					"indices":45,
					"material":2
				}
			]
		}
	],
	"textures":[
		{
			"sampler":0,
			"source":0
		},
		{
			"sampler":0,
			"source":0
		}
	],
	"images":[
		{
			"mimeType":"image/png",
			"name":"LS_0",
			"uri":"textures/LS_0.png"
		}
	],
	"accessors":[
		{
			"bufferView":0,
			"componentType":5126,
			"count":1131,
			"max":[
				9.49190902709961,
				6,
				9.220658302307129
			],
			"min":[
				-9.49190902709961,
				-3.740032283872097e-09,
				4.539767265319824
			],
			"type":"VEC3"
		},
		{
			"bufferView":1,
			"componentType":5126,
			"count":1131,
			"type":"VEC3"
		},
		{
			"bufferView":2,
			"componentType":5126,
			"count":1131,
			"type":"VEC2"
		},
		{
			"bufferView":3,
			"componentType":5126,
			"count":1131,
			"type":"VEC2"
		},
		{
			"bufferView":4,
			"componentType":5123,
			"count":3168,
			"type":"SCALAR"
		},
		{
			"bufferView":5,
			"componentType":5126,
			"count":1363,
			"max":[
				9.531577110290527,
				6,
				9.270658493041992
			],
			"min":[
				-9.531577110290527,
				-3.740032283872097e-09,
				4.539767265319824
			],
			"type":"VEC3"
		},
		{
			"bufferView":6,
			"componentType":5126,
			"count":1363,
			"type":"VEC3"
		},
		{
			"bufferView":7,
			"componentType":5126,
			"count":1363,
			"type":"VEC2"
		},
		{
			"bufferView":8,
			"componentType":5126,
			"count":1363,
			"type":"VEC2"
		},
		{
			"bufferView":9,
			"componentType":5123,
			"count":3840,
			"type":"SCALAR"
		},
		{
			"bufferView":10,
			"componentType":5126,
			"count":195,
			"max":[
				3.499999761581421,
				6,
				7.220658302307129
			],
			"min":[
				-3.499999761581421,
				5.999999523162842,
				1.220658302307129
			],
			"type":"VEC3"
		},
		{
			"bufferView":11,
			"componentType":5126,
			"count":195,
			"type":"VEC3"
		},
		{
			"bufferView":12,
			"componentType":5126,
			"count":195,
			"type":"VEC2"
		},
		{
			"bufferView":13,
			"componentType":5126,
			"count":195,
			"type":"VEC2"
		},
		{
			"bufferView":14,
			"componentType":5123,
			"count":1008,
			"type":"SCALAR"
		},
		{
			"bufferView":15,
			"componentType":5126,
			"count":299,
			"max":[
				3.499999761581421,
				6.050000190734863,
				7.220658302307129
			],
			"min":[
				-3.499999761581421,
				5.999999523162842,
				1.220658302307129
			],
			"type":"VEC3"
		},
		{
			"bufferView":16,
			"componentType":5126,
			"count":299,
			"type":"VEC3"
		},
		{
			"bufferView":17,
			"componentType":5126,
			"count":299,
			"type":"VEC2"
		},
		{
			"bufferView":18,
			"componentType":5126,
			"count":299,
			"type":"VEC2"
		},
		{
			"bufferView":19,
			"componentType":5123,
			"count":1320,
			"type":"SCALAR"
		},
		{
			"bufferView":20,
			"componentType":5126,
			"count":49,
			"max":[
				9,
				3.0000455379486084,
				3.2206597328186035
			],
			"min":[
				9,
				0,
				0.2206563949584961
			],
			"type":"VEC3"
		},
		{
			"bufferView":21,
			"componentType":5126,
			"count":49,
			"type":"VEC3"
		},
		{
			"bufferView":22,
			"componentType":5126,
			"count":49,
			"type":"VEC2"
		},
		{
			"bufferView":23,
			"componentType":5126,
			"count":49,
			"type":"VEC2"
		},
		{
			"bufferView":24,
			"componentType":5126,
			"count":49,
			"type":"VEC2"
		},
		{
			"bufferView":25,
			"componentType":5123,
			"count":216,
			"type":"SCALAR"
		},
		{
			"bufferView":26,
			"componentType":5126,
			"count":73,
			"max":[
				9.050000190734863,
				3.0000455379486084,
				3.2206597328186035
			],
			"min":[
				9,
				0,
				0.2206563949584961
			],
			"type":"VEC3"
		},
		{
			"bufferView":27,
			"componentType":5126,
			"count":73,
			"type":"VEC3"
		},
		{
			"bufferView":28,
			"componentType":5126,
			"count":73,
			"type":"VEC2"
		},
		{
			"bufferView":29,
			"componentType":5126,
			"count":73,
			"type":"VEC2"
		},
		{
			"bufferView":30,
			"componentType":5126,
			"count":73,
			"type":"VEC2"
		},
		{
			"bufferView":31,
			"componentType":5123,
			"count":360,
			"type":"SCALAR"
		},
		{
			"bufferView":32,
			"componentType":5126,
			"count":49,
			"max":[
				-8.999999046325684,
				3.0000455379486084,
				3.2206602096557617
			],
			"min":[
				-9,
				0,
				0.2206563949584961
			],
			"type":"VEC3"
		},
		{
			"bufferView":33,
			"componentType":5126,
			"count":49,
			"type":"VEC3"
		},
		{
			"bufferView":34,
			"componentType":5126,
			"count":49,
			"type":"VEC2"
		},
		{
			"bufferView":35,
			"componentType":5126,
			"count":49,
			"type":"VEC2"
		},
		{
			"bufferView":36,
			"componentType":5126,
			"count":49,
			"type":"VEC2"
		},
		{
			"bufferView":37,
			"componentType":5126,
			"count":73,
			"max":[
				-8.999999046325684,
				3.0000455379486084,
				3.2206602096557617
			],
			"min":[
				-9.050000190734863,
				0,
				0.2206563949584961
			],
			"type":"VEC3"
		},
		{
			"bufferView":38,
			"componentType":5126,
			"count":73,
			"type":"VEC3"
		},
		{
			"bufferView":39,
			"componentType":5126,
			"count":73,
			"type":"VEC2"
		},
		{
			"bufferView":40,
			"componentType":5126,
			"count":73,
			"type":"VEC2"
		},
		{
			"bufferView":41,
			"componentType":5126,
			"count":73,
			"type":"VEC2"
		},
		{
			"bufferView":42,
			"componentType":5126,
			"count":4,
			"max":[
				15,
				0,
				16.220657348632812
			],
			"min":[
				-15,
				0,
				-13.779341697692871
			],
			"type":"VEC3"
		},
		{
			"bufferView":43,
			"componentType":5126,
			"count":4,
			"type":"VEC3"
		},
		{
			"bufferView":44,
			"componentType":5126,
			"count":4,
			"type":"VEC2"
		},
		{
			"bufferView":45,
			"componentType":5123,
			"count":6,
			"type":"SCALAR"
		}
	],
	"bufferViews":[
		{
			"buffer":0,
			"byteLength":13572,
			"byteOffset":0,
			"target":34962
		},
		{
			"buffer":0,
			"byteLength":13572,
			"byteOffset":13572,
			"target":34962
		},
		{
			"buffer":0,
			"byteLength":9048,
			"byteOffset":27144,
			"target":34962
		},
		{
			"buffer":0,
			"byteLength":9048,
			"byteOffset":36192,
			"target":34962
		},
		{
			"buffer":0,
			"byteLength":6336,
			"byteOffset":45240,
			"target":34963
		},
		{
			"buffer":0,
			"byteLength":16356,
			"byteOffset":51576,
			"target":34962
		},
		{
			"buffer":0,
			"byteLength":16356,
			"byteOffset":67932,
			"target":34962
		},
		{
			"buffer":0,
			"byteLength":10904,
			"byteOffset":84288,
			"target":34962
		},
		{
			"buffer":0,
			"byteLength":10904,
			"byteOffset":95192,
			"target":34962
		},
		{
			"buffer":0,
			"byteLength":7680,
			"byteOffset":106096,
			"target":34963
		},
		{
			"buffer":0,
			"byteLength":2340,
			"byteOffset":113776,
			"target":34962
		},
		{
			"buffer":0,
			"byteLength":2340,
			"byteOffset":116116,
			"target":34962
		},
		{
			"buffer":0,
			"byteLength":1560,
			"byteOffset":118456,
			"target":34962
		},
		{
			"buffer":0,
			"byteLength":1560,
			"byteOffset":120016,
			"target":34962
		},
		{
			"buffer":0,
			"byteLength":2016,
			"byteOffset":121576,
			"target":34963
		},
		{
			"buffer":0,
			"byteLength":3588,
			"byteOffset":123592,
			"target":34962
		},
		{
			"buffer":0,
			"byteLength":3588,
			"byteOffset":127180,
			"target":34962
		},
		{
			"buffer":0,
			"byteLength":2392,
			"byteOffset":130768,
			"target":34962
		},
		{
			"buffer":0,
			"byteLength":2392,
			"byteOffset":133160,
			"target":34962
		},
		{
			"buffer":0,
			"byteLength":2640,
			"byteOffset":135552,
			"target":34963
		},
		{
			"buffer":0,
			"byteLength":588,
			"byteOffset":138192,
			"target":34962
		},
		{
			"buffer":0,
			"byteLength":588,
			"byteOffset":138780,
			"target":34962
		},
		{
			"buffer":0,
			"byteLength":392,
			"byteOffset":139368,
			"target":34962
		},
		{
			"buffer":0,
			"byteLength":392,
			"byteOffset":139760,
			"target":34962
		},
		{
			"buffer":0,
			"byteLength":392,
			"byteOffset":140152,
			"target":34962
		},
		{
			"buffer":0,
			"byteLength":432,
			"byteOffset":140544,
			"target":34963
		},
		{
			"buffer":0,
			"byteLength":876,
			"byteOffset":140976,
			"target":34962
		},
		{
			"buffer":0,
			"byteLength":876,
			"byteOffset":141852,
			"target":34962
		},
		{
			"buffer":0,
			"byteLength":584,
			"byteOffset":142728,
			"target":34962
		},
		{
			"buffer":0,
			"byteLength":584,
			"byteOffset":143312,
			"target":34962
		},
		{
			"buffer":0,
			"byteLength":584,
			"byteOffset":143896,
			"target":34962
		},
		{
			"buffer":0,
			"byteLength":720,
			"byteOffset":144480,
			"target":34963
		},
		{
			"buffer":0,
			"byteLength":588,
			"byteOffset":145200,
			"target":34962
		},
		{
			"buffer":0,
			"byteLength":588,
			"byteOffset":145788,
			"target":34962
		},
		{
			"buffer":0,
			"byteLength":392,
			"byteOffset":146376,
			"target":34962
		},
		{
			"buffer":0,
			"byteLength":392,
			"byteOffset":146768,
			"target":34962
		},
		{
			"buffer":0,
			"byteLength":392,
			"byteOffset":147160,
			"target":34962
		},
		{
			"buffer":0,
			"byteLength":876,
			"byteOffset":147552,
			"target":34962
		},
		{
			"buffer":0,
			"byteLength":876,
			"byteOffset":148428,
			"target":34962
		},
		{
			"buffer":0,
			"byteLength":584,
			"byteOffset":149304,
			"target":34962
		},
		{
			"buffer":0,
			"byteLength":584,
			"byteOffset":149888,
			"target":34962
		},
		{
			"buffer":0,
			"byteLength":584,
			"byteOffset":150472,
			"target":34962
		},
		{
			"buffer":0,
			"byteLength":48,
			"byteOffset":151056,
			"target":34962
		},
		{
			"buffer":0,
			"byteLength":48,
			"byteOffset":151104,
			"target":34962
		},
		{
			"buffer":0,
			"byteLength":32,
			"byteOffset":151152,
			"target":34962
		},
		{
			"buffer":0,
			"byteLength":12,
			"byteOffset":151184,
			"target":34963
		}
	],
	"samplers":[
		{
			"magFilter":9729,
			"minFilter":9987
		}
	],
	"buffers":[
		{
			"byteLength":151196,
			"uri":"LED_Studio_Madrid.bin"
		}
	]
}
