{
	"asset":{
		"generator":"Khronos glTF Blender I/O v4.4.56",
		"version":"2.0"
	},
	"extensionsUsed":[
		"KHR_materials_emissive_strength",
		"KHR_materials_specular",
		"KHR_materials_ior"
	],
	"scene":0,
	"scenes":[
		{
			"name":"Scene",
			"nodes":[
				0,
				1,
				2,
				3
			]
		}
	],
	"nodes":[
		{
			"mesh":0,
			"name":"Floor"
		},
		{
			"mesh":1,
			"name":"LED Curve.001"
		},
		{
			"mesh":2,
			"name":"LED Ceiling.001"
		},
		{
			"mesh":3,
			"name":"LED Totem"
		}
	],
	"materials":[
		{
			"doubleSided":true,
			"extensions":{
				"KHR_materials_specular":{
					"specularColorFactor":[
						2.0,
						2.0,
						2.0
					]
				},
				"KHR_materials_ior":{
					"ior":1.4500000476837158
				}
			},
			"name":"Plastic_black.001",
			"pbrMetallicRoughness":{
				"baseColorFactor":[
					0.0038437643088400364,
					0.0038437643088400364,
					0.0038437643088400364,
					1
				],
				"metallicFactor":0,
				"roughnessFactor":0.8999999761581421
			}
		},
		{
			"doubleSided":true,
			"emissiveFactor":[
				1,
				1,
				1
			],
			"extensions":{
				"KHR_materials_emissive_strength":{
					"emissiveStrength":5
				}
			},
			"name":"M_WhiteScreen",
			"pbrMetallicRoughness":{
				"baseColorFactor":[
					0.800000011920929,
					0.800000011920929,
					0.800000011920929,
					1
				],
				"metallicFactor":0,
				"roughnessFactor":0.5
			}
		},
		{
			"doubleSided":true,
			"name":"black.001",
			"pbrMetallicRoughness":{
				"baseColorFactor":[
					0,
					0,
					0,
					1
				],
				"metallicFactor":0,
				"roughnessFactor":0.5
			}
		}
	],
	"meshes":[
		{
			"name":"Plane",
			"primitives":[
				{
					"attributes":{
						"POSITION":0,
						"NORMAL":1,
						"TEXCOORD_0":2
					},
					"indices":3,
					"material":0
				}
			]
		},
		{
			"name":"Plane.003",
			"primitives":[
				{
					"attributes":{
						"POSITION":4,
						"NORMAL":5,
						"TEXCOORD_0":6,
						"TEXCOORD_1":7,
						"TEXCOORD_2":8
					},
					"indices":9,
					"material":1
				},
				{
					"attributes":{
						"POSITION":10,
						"NORMAL":11,
						"TEXCOORD_0":12,
						"TEXCOORD_1":13,
						"TEXCOORD_2":14
					},
					"indices":15,
					"material":2
				}
			]
		},
		{
			"name":"Plane.006",
			"primitives":[
				{
					"attributes":{
						"POSITION":16,
						"NORMAL":17,
						"TEXCOORD_0":18
					},
					"indices":19,
					"material":1
				},
				{
					"attributes":{
						"POSITION":20,
						"NORMAL":21,
						"TEXCOORD_0":22
					},
					"indices":23,
					"material":2
				}
			]
		},
		{
			"name":"Plane.007",
			"primitives":[
				{
					"attributes":{
						"POSITION":24,
						"NORMAL":25,
						"TEXCOORD_0":26
					},
					"indices":19,
					"material":1
				},
				{
					"attributes":{
						"POSITION":27,
						"NORMAL":28,
						"TEXCOORD_0":29
					},
					"indices":30,
					"material":2
				}
			]
		}
	],
	"accessors":[
		{
			"bufferView":0,
			"componentType":5126,
			"count":4,
			"max":[
				15,
				0,
				16.220657348632812
			],
			"min":[
				-15,
				0,
				-13.779341697692871
			],
			"type":"VEC3"
		},
		{
			"bufferView":1,
			"componentType":5126,
			"count":4,
			"type":"VEC3"
		},
		{
			"bufferView":2,
			"componentType":5126,
			"count":4,
			"type":"VEC2"
		},
		{
			"bufferView":3,
			"componentType":5123,
			"count":6,
			"type":"SCALAR"
		},
		{
			"bufferView":4,
			"componentType":5126,
			"count":210,
			"max":[
				4.3905029296875,
				4.5000224113464355,
				6.067439079284668
			],
			"min":[
				-4.390507221221924,
				0,
				4.02011251449585
			],
			"type":"VEC3"
		},
		{
			"bufferView":5,
			"componentType":5126,
			"count":210,
			"type":"VEC3"
		},
		{
			"bufferView":6,
			"componentType":5126,
			"count":210,
			"type":"VEC2"
		},
		{
			"bufferView":7,
			"componentType":5126,
			"count":210,
			"type":"VEC2"
		},
		{
			"bufferView":8,
			"componentType":5126,
			"count":210,
			"type":"VEC2"
		},
		{
			"bufferView":9,
			"componentType":5123,
			"count":1080,
			"type":"SCALAR"
		},
		{
			"bufferView":10,
			"componentType":5126,
			"count":344,
			"max":[
				4.427366733551025,
				4.5000224113464355,
				6.117439270019531
			],
			"min":[
				-4.427371025085449,
				0,
				4.02011251449585
			],
			"type":"VEC3"
		},
		{
			"bufferView":11,
			"componentType":5126,
			"count":344,
			"type":"VEC3"
		},
		{
			"bufferView":12,
			"componentType":5126,
			"count":344,
			"type":"VEC2"
		},
		{
			"bufferView":13,
			"componentType":5126,
			"count":344,
			"type":"VEC2"
		},
		{
			"bufferView":14,
			"componentType":5126,
			"count":344,
			"type":"VEC2"
		},
		{
			"bufferView":15,
			"componentType":5123,
			"count":1428,
			"type":"SCALAR"
		},
		{
			"bufferView":16,
			"componentType":5126,
			"count":4,
			"max":[
				2.4999992847442627,
				4.75,
				5
			],
			"min":[
				-2.5000007152557373,
				4.75,
				0
			],
			"type":"VEC3"
		},
		{
			"bufferView":17,
			"componentType":5126,
			"count":4,
			"type":"VEC3"
		},
		{
			"bufferView":18,
			"componentType":5126,
			"count":4,
			"type":"VEC2"
		},
		{
			"bufferView":19,
			"componentType":5123,
			"count":6,
			"type":"SCALAR"
		},
		{
			"bufferView":20,
			"componentType":5126,
			"count":20,
			"max":[
				2.4999992847442627,
				4.800000190734863,
				5
			],
			"min":[
				-2.5000007152557373,
				4.75,
				0
			],
			"type":"VEC3"
		},
		{
			"bufferView":21,
			"componentType":5126,
			"count":20,
			"type":"VEC3"
		},
		{
			"bufferView":22,
			"componentType":5126,
			"count":20,
			"type":"VEC2"
		},
		{
			"bufferView":23,
			"componentType":5123,
			"count":30,
			"type":"SCALAR"
		},
		{
			"bufferView":24,
			"componentType":5126,
			"count":4,
			"max":[
				-4.349981784820557,
				3.299999952316284,
				3
			],
			"min":[
				-4.349981784820557,
				0.29999983310699463,
				-1
			],
			"type":"VEC3"
		},
		{
			"bufferView":25,
			"componentType":5126,
			"count":4,
			"type":"VEC3"
		},
		{
			"bufferView":26,
			"componentType":5126,
			"count":4,
			"type":"VEC2"
		},
		{
			"bufferView":27,
			"componentType":5126,
			"count":20,
			"max":[
				-4.349981784820557,
				3.299999952316284,
				3
			],
			"min":[
				-4.39998197555542,
				0.29999983310699463,
				-1
			],
			"type":"VEC3"
		},
		{
			"bufferView":28,
			"componentType":5126,
			"count":20,
			"type":"VEC3"
		},
		{
			"bufferView":29,
			"componentType":5126,
			"count":20,
			"type":"VEC2"
		},
		{
			"bufferView":30,
			"componentType":5123,
			"count":30,
			"type":"SCALAR"
		}
	],
	"bufferViews":[
		{
			"buffer":0,
			"byteLength":48,
			"byteOffset":0,
			"target":34962
		},
		{
			"buffer":0,
			"byteLength":48,
			"byteOffset":48,
			"target":34962
		},
		{
			"buffer":0,
			"byteLength":32,
			"byteOffset":96,
			"target":34962
		},
		{
			"buffer":0,
			"byteLength":12,
			"byteOffset":128,
			"target":34963
		},
		{
			"buffer":0,
			"byteLength":2520,
			"byteOffset":140,
			"target":34962
		},
		{
			"buffer":0,
			"byteLength":2520,
			"byteOffset":2660,
			"target":34962
		},
		{
			"buffer":0,
			"byteLength":1680,
			"byteOffset":5180,
			"target":34962
		},
		{
			"buffer":0,
			"byteLength":1680,
			"byteOffset":6860,
			"target":34962
		},
		{
			"buffer":0,
			"byteLength":1680,
			"byteOffset":8540,
			"target":34962
		},
		{
			"buffer":0,
			"byteLength":2160,
			"byteOffset":10220,
			"target":34963
		},
		{
			"buffer":0,
			"byteLength":4128,
			"byteOffset":12380,
			"target":34962
		},
		{
			"buffer":0,
			"byteLength":4128,
			"byteOffset":16508,
			"target":34962
		},
		{
			"buffer":0,
			"byteLength":2752,
			"byteOffset":20636,
			"target":34962
		},
		{
			"buffer":0,
			"byteLength":2752,
			"byteOffset":23388,
			"target":34962
		},
		{
			"buffer":0,
			"byteLength":2752,
			"byteOffset":26140,
			"target":34962
		},
		{
			"buffer":0,
			"byteLength":2856,
			"byteOffset":28892,
			"target":34963
		},
		{
			"buffer":0,
			"byteLength":48,
			"byteOffset":31748,
			"target":34962
		},
		{
			"buffer":0,
			"byteLength":48,
			"byteOffset":31796,
			"target":34962
		},
		{
			"buffer":0,
			"byteLength":32,
			"byteOffset":31844,
			"target":34962
		},
		{
			"buffer":0,
			"byteLength":12,
			"byteOffset":31876,
			"target":34963
		},
		{
			"buffer":0,
			"byteLength":240,
			"byteOffset":31888,
			"target":34962
		},
		{
			"buffer":0,
			"byteLength":240,
			"byteOffset":32128,
			"target":34962
		},
		{
			"buffer":0,
			"byteLength":160,
			"byteOffset":32368,
			"target":34962
		},
		{
			"buffer":0,
			"byteLength":60,
			"byteOffset":32528,
			"target":34963
		},
		{
			"buffer":0,
			"byteLength":48,
			"byteOffset":32588,
			"target":34962
		},
		{
			"buffer":0,
			"byteLength":48,
			"byteOffset":32636,
			"target":34962
		},
		{
			"buffer":0,
			"byteLength":32,
			"byteOffset":32684,
			"target":34962
		},
		{
			"buffer":0,
			"byteLength":240,
			"byteOffset":32716,
			"target":34962
		},
		{
			"buffer":0,
			"byteLength":240,
			"byteOffset":32956,
			"target":34962
		},
		{
			"buffer":0,
			"byteLength":160,
			"byteOffset":33196,
			"target":34962
		},
		{
			"buffer":0,
			"byteLength":60,
			"byteOffset":33356,
			"target":34963
		}
	],
	"buffers":[
		{
			"byteLength":33416,
			"uri":"LED_Studio_Barcelona.bin"
		}
	]
}
